<?xml version="1.0" encoding="UTF-8"?>
<svg xmlns="http://www.w3.org/2000/svg" xmlns:xlink="http://www.w3.org/1999/xlink" width="74.25pt" height="74.249997pt" viewBox="0 0 74.25 74.249997" version="1.2">
<defs>
<clipPath id="clip1">
  <path d="M 34 24 L 73.507812 24 L 73.507812 46 L 34 46 Z M 34 24 "/>
</clipPath>
<clipPath id="clip2">
  <path d="M 10 9.203125 L 64 9.203125 L 64 63 L 10 63 Z M 10 9.203125 "/>
</clipPath>
</defs>
<g id="surface1">
<g clip-path="url(#clip1)" clip-rule="nonzero">
<path style=" stroke:none;fill-rule:nonzero;fill:rgb(0%,0%,0%);fill-opacity:1;" d="M 53.445312 24.628906 C 54.46875 24.671875 55.472656 24.792969 56.476562 24.996094 C 57.402344 25.183594 58.300781 25.449219 59.183594 25.777344 C 60.105469 26.105469 60.988281 26.515625 61.847656 26.964844 C 61.886719 26.984375 61.929688 27.007812 61.96875 27.027344 C 62.789062 27.457031 63.570312 27.929688 64.328125 28.441406 L 64.921875 28.851562 C 65.125 28.992188 65.3125 29.136719 65.496094 29.28125 C 65.882812 29.566406 66.253906 29.855469 66.644531 30.164062 C 67.402344 30.757812 68.117188 31.390625 68.816406 32.046875 C 70.207031 33.359375 71.5 34.773438 72.730469 36.226562 L 73.488281 37.128906 L 72.503906 37.804688 C 72.339844 37.910156 72.195312 38.011719 72.054688 38.113281 L 71.601562 38.398438 C 71.292969 38.585938 71.007812 38.769531 70.699219 38.953125 C 70.085938 39.324219 69.492188 39.671875 68.855469 40 C 67.625 40.675781 66.355469 41.308594 65.085938 41.882812 C 64.308594 42.234375 63.507812 42.582031 62.707031 42.886719 C 62.195312 43.09375 61.683594 43.296875 61.171875 43.484375 C 60.066406 43.871094 58.957031 44.21875 57.832031 44.527344 C 57.585938 44.589844 57.359375 44.652344 57.113281 44.710938 C 54.347656 45.386719 51.476562 45.777344 48.609375 45.613281 C 47.175781 45.53125 45.71875 45.304688 44.324219 44.917969 C 42.933594 44.507812 41.578125 43.933594 40.308594 43.195312 L 39.839844 42.929688 L 39.878906 42.417969 C 39.878906 42.316406 39.898438 42.253906 39.898438 42.191406 L 39.921875 41.964844 C 39.941406 41.824219 39.960938 41.679688 39.980469 41.554688 C 40.042969 41.289062 40.085938 41.003906 40.164062 40.738281 C 40.308594 40.203125 40.472656 39.671875 40.65625 39.136719 C 40.863281 38.625 41.066406 38.113281 41.335938 37.601562 C 41.601562 37.109375 41.886719 36.617188 42.214844 36.167969 C 42.871094 35.265625 43.691406 34.445312 44.613281 33.808594 C 45.554688 33.175781 46.582031 32.703125 47.667969 32.417969 C 48.199219 32.273438 48.753906 32.191406 49.304688 32.128906 C 49.859375 32.066406 50.390625 32.046875 50.945312 32.066406 C 52.03125 32.089844 53.097656 32.230469 54.140625 32.457031 C 55.1875 32.683594 56.210938 32.988281 57.214844 33.339844 C 57.953125 33.605469 58.671875 33.890625 59.367188 34.199219 C 59.632812 34.300781 59.878906 34.425781 60.148438 34.546875 C 59.902344 34.464844 59.632812 34.382812 59.386719 34.300781 C 58.652344 34.054688 57.890625 33.832031 57.132812 33.644531 C 56.109375 33.378906 55.085938 33.175781 54.058594 33.050781 C 53.035156 32.910156 51.992188 32.867188 50.964844 32.910156 C 50.453125 32.949219 49.941406 32.988281 49.449219 33.070312 C 48.957031 33.175781 48.464844 33.277344 47.996094 33.441406 C 47.050781 33.75 46.171875 34.21875 45.390625 34.8125 C 44.613281 35.410156 43.957031 36.144531 43.425781 36.988281 C 42.890625 37.804688 42.480469 38.726562 42.175781 39.671875 C 42.03125 40.140625 41.886719 40.632812 41.804688 41.105469 C 41.765625 41.351562 41.722656 41.597656 41.683594 41.84375 C 41.683594 41.90625 41.660156 41.945312 41.660156 42.007812 C 42.667969 42.5 43.730469 42.886719 44.839844 43.15625 C 46.109375 43.460938 47.421875 43.625 48.730469 43.667969 C 50.0625 43.707031 51.375 43.625 52.707031 43.460938 C 53.035156 43.402344 53.363281 43.359375 53.691406 43.320312 L 54.183594 43.238281 L 54.675781 43.132812 C 55.003906 43.074219 55.332031 42.992188 55.660156 42.929688 C 55.988281 42.847656 56.3125 42.765625 56.640625 42.683594 C 57.339844 42.5 58.035156 42.292969 58.710938 42.089844 C 59.304688 41.90625 59.902344 41.699219 60.496094 41.472656 C 61.4375 41.125 62.378906 40.757812 63.324219 40.347656 C 63.628906 40.203125 63.957031 40.082031 64.265625 39.9375 C 65.496094 39.363281 66.703125 38.769531 67.894531 38.113281 C 68.488281 37.785156 69.082031 37.457031 69.65625 37.109375 C 69.878906 36.964844 70.125 36.84375 70.351562 36.699219 C 69.429688 35.613281 68.464844 34.589844 67.441406 33.605469 C 66.785156 32.96875 66.128906 32.355469 65.433594 31.78125 C 65.085938 31.496094 64.738281 31.207031 64.367188 30.921875 C 64.019531 30.632812 63.652344 30.386719 63.28125 30.121094 C 63.136719 30.019531 63.015625 29.9375 62.871094 29.835938 C 62.277344 29.425781 61.644531 29.035156 61.007812 28.667969 C 60.230469 28.234375 59.410156 27.847656 58.589844 27.5 C 58.261719 27.355469 57.933594 27.230469 57.585938 27.128906 C 56.234375 26.65625 54.839844 26.351562 53.425781 26.246094 C 51.640625 26.105469 49.859375 26.246094 48.097656 26.679688 C 46.355469 27.109375 44.652344 27.804688 43.054688 28.6875 C 42.257812 29.136719 41.476562 29.628906 40.71875 30.140625 C 39.960938 30.675781 39.242188 31.25 38.527344 31.84375 C 37.828125 32.4375 37.152344 33.070312 36.496094 33.75 C 35.84375 34.402344 35.207031 35.101562 34.632812 35.839844 C 35.125 35.039062 35.699219 34.300781 36.273438 33.5625 C 36.867188 32.828125 37.5 32.128906 38.15625 31.472656 C 39.488281 30.140625 40.945312 28.914062 42.542969 27.886719 C 44.140625 26.863281 45.882812 26.003906 47.75 25.449219 C 49.53125 24.835938 51.5 24.546875 53.445312 24.628906 Z M 53.445312 24.628906 "/>
</g>
<path style=" stroke:none;fill-rule:nonzero;fill:rgb(0%,0%,0%);fill-opacity:1;" d="M 25.265625 26.679688 C 26.703125 26.761719 28.15625 26.984375 29.550781 27.375 C 30.945312 27.785156 32.316406 28.359375 33.566406 29.074219 L 34.039062 29.34375 L 33.996094 29.855469 C 33.996094 29.957031 33.976562 30.019531 33.976562 30.082031 L 33.9375 30.304688 C 33.914062 30.449219 33.894531 30.59375 33.875 30.714844 C 33.832031 30.980469 33.773438 31.269531 33.710938 31.535156 C 33.566406 32.066406 33.402344 32.601562 33.21875 33.132812 C 33.015625 33.667969 32.789062 34.179688 32.542969 34.671875 C 32.277344 35.164062 31.988281 35.65625 31.660156 36.105469 C 31.003906 37.007812 30.1875 37.828125 29.265625 38.460938 C 28.339844 39.097656 27.296875 39.570312 26.210938 39.835938 C 25.675781 39.976562 25.125 40.058594 24.589844 40.121094 C 24.039062 40.183594 23.503906 40.203125 22.953125 40.183594 C 21.867188 40.140625 20.800781 40.019531 19.753906 39.792969 C 18.710938 39.570312 17.683594 39.261719 16.679688 38.914062 C 15.941406 38.644531 15.226562 38.359375 14.527344 38.050781 C 14.261719 37.929688 14.015625 37.828125 13.75 37.703125 C 14.015625 37.785156 14.261719 37.867188 14.507812 37.949219 C 15.246094 38.195312 16.003906 38.421875 16.761719 38.605469 C 17.789062 38.871094 18.8125 39.078125 19.835938 39.199219 C 20.863281 39.34375 21.90625 39.382812 22.929688 39.34375 C 23.445312 39.300781 23.957031 39.261719 24.449219 39.179688 C 24.941406 39.097656 25.429688 38.972656 25.902344 38.808594 C 26.84375 38.503906 27.746094 38.03125 28.503906 37.4375 C 29.285156 36.84375 29.941406 36.105469 30.472656 35.285156 C 31.003906 34.464844 31.414062 33.542969 31.722656 32.601562 C 31.867188 32.128906 31.988281 31.636719 32.089844 31.167969 C 32.132812 30.921875 32.195312 30.675781 32.214844 30.429688 C 32.214844 30.367188 32.234375 30.324219 32.234375 30.265625 C 31.230469 29.773438 30.164062 29.382812 29.058594 29.117188 C 27.789062 28.808594 26.476562 28.644531 25.164062 28.605469 C 23.855469 28.5625 22.523438 28.644531 21.191406 28.808594 C 20.863281 28.851562 20.535156 28.890625 20.207031 28.953125 L 19.714844 29.035156 L 19.222656 29.136719 C 18.894531 29.199219 18.566406 29.28125 18.238281 29.34375 C 17.910156 29.425781 17.582031 29.507812 17.253906 29.589844 C 16.558594 29.773438 15.882812 29.976562 15.183594 30.183594 C 14.589844 30.386719 13.996094 30.59375 13.402344 30.796875 C 12.460938 31.144531 11.515625 31.515625 10.574219 31.925781 C 10.265625 32.066406 9.960938 32.191406 9.632812 32.335938 C 8.402344 32.910156 7.191406 33.503906 6.003906 34.160156 C 5.410156 34.484375 4.816406 34.8125 4.242188 35.164062 C 4.015625 35.304688 3.769531 35.449219 3.546875 35.59375 C 4.46875 36.679688 5.429688 37.703125 6.433594 38.6875 C 7.089844 39.324219 7.765625 39.9375 8.441406 40.511719 C 8.792969 40.796875 9.140625 41.085938 9.507812 41.371094 C 9.855469 41.660156 10.226562 41.90625 10.59375 42.171875 C 10.738281 42.273438 10.859375 42.355469 11.003906 42.457031 C 11.597656 42.867188 12.234375 43.257812 12.871094 43.625 C 13.648438 44.054688 14.46875 44.445312 15.289062 44.792969 C 15.617188 44.9375 15.941406 45.0625 16.292969 45.164062 C 17.644531 45.632812 19.039062 45.921875 20.453125 46.042969 C 22.214844 46.1875 24.015625 46.042969 25.78125 45.613281 C 27.523438 45.183594 29.222656 44.488281 30.820312 43.605469 C 31.621094 43.15625 32.398438 42.664062 33.15625 42.152344 C 33.914062 41.617188 34.652344 41.042969 35.351562 40.449219 C 36.046875 39.855469 36.722656 39.21875 37.378906 38.542969 C 38.035156 37.886719 38.648438 37.191406 39.242188 36.453125 C 38.753906 37.253906 38.179688 37.992188 37.582031 38.726562 C 36.988281 39.464844 36.355469 40.164062 35.699219 40.820312 C 34.367188 42.152344 32.910156 43.378906 31.3125 44.40625 C 29.714844 45.429688 27.972656 46.289062 26.128906 46.84375 C 24.285156 47.398438 22.316406 47.664062 20.371094 47.582031 C 19.34375 47.539062 18.339844 47.417969 17.335938 47.210938 C 16.414062 47.027344 15.511719 46.761719 14.632812 46.433594 C 13.710938 46.105469 12.828125 45.695312 11.96875 45.246094 C 11.925781 45.222656 11.886719 45.203125 11.84375 45.183594 C 11.023438 44.753906 10.246094 44.28125 9.488281 43.769531 L 8.894531 43.359375 C 8.6875 43.214844 8.503906 43.074219 8.320312 42.929688 C 7.929688 42.640625 7.542969 42.355469 7.171875 42.046875 C 6.433594 41.453125 5.695312 40.820312 5 40.164062 C 3.605469 38.851562 2.316406 37.4375 1.085938 35.980469 L 0.328125 35.082031 L 1.3125 34.402344 C 1.476562 34.28125 1.617188 34.199219 1.761719 34.097656 L 2.214844 33.808594 C 2.519531 33.625 2.808594 33.441406 3.113281 33.257812 C 3.707031 32.886719 4.324219 32.539062 4.9375 32.210938 C 6.167969 31.535156 7.4375 30.898438 8.710938 30.324219 C 9.488281 29.976562 10.289062 29.628906 11.085938 29.320312 C 11.597656 29.117188 12.109375 28.933594 12.625 28.75 C 13.730469 28.359375 14.835938 28.011719 15.984375 27.703125 C 16.230469 27.640625 16.457031 27.582031 16.703125 27.519531 C 19.507812 26.902344 22.378906 26.535156 25.265625 26.679688 Z M 25.265625 26.679688 "/>
<g clip-path="url(#clip2)" clip-rule="nonzero">
<path style=" stroke:none;fill-rule:nonzero;fill:rgb(0%,0%,0%);fill-opacity:1;" d="M 14.507812 38.09375 C 14.507812 38.050781 14.507812 38.03125 14.507812 37.992188 C 14.242188 37.910156 13.996094 37.828125 13.75 37.746094 C 13.976562 37.867188 14.242188 37.992188 14.507812 38.09375 Z M 11.128906 29.402344 C 10.902344 30.246094 10.71875 31.105469 10.59375 31.984375 C 11.515625 31.578125 12.460938 31.207031 13.421875 30.859375 C 14.015625 30.632812 14.609375 30.429688 15.207031 30.246094 C 15.429688 29.402344 15.71875 28.585938 16.023438 27.785156 C 19.34375 19.503906 27.441406 13.664062 36.90625 13.664062 C 45.289062 13.664062 52.585938 18.234375 56.457031 25.019531 C 56.847656 25.695312 57.195312 26.390625 57.503906 27.109375 C 57.832031 27.210938 58.179688 27.335938 58.507812 27.476562 C 59.328125 27.804688 60.148438 28.214844 60.925781 28.644531 C 61.5625 28.992188 62.175781 29.382812 62.789062 29.8125 C 62.566406 28.871094 62.277344 27.949219 61.949219 27.066406 C 58.21875 16.839844 48.425781 9.546875 36.90625 9.546875 C 24.53125 9.503906 14.121094 17.949219 11.128906 29.402344 Z M 60.105469 34.566406 C 59.859375 34.445312 59.59375 34.324219 59.328125 34.21875 C 59.328125 34.261719 59.328125 34.28125 59.328125 34.324219 C 59.59375 34.382812 59.859375 34.484375 60.105469 34.566406 Z M 14.488281 37.992188 C 14.222656 37.910156 13.976562 37.828125 13.730469 37.746094 C 13.996094 37.867188 14.242188 37.992188 14.507812 38.09375 C 14.507812 38.074219 14.488281 38.03125 14.488281 37.992188 Z M 58.628906 42.046875 C 58.40625 42.886719 58.117188 43.707031 57.789062 44.527344 C 54.46875 52.808594 46.375 58.648438 36.90625 58.648438 C 28.546875 58.648438 21.230469 54.078125 17.355469 47.292969 C 16.96875 46.617188 16.621094 45.921875 16.3125 45.203125 C 15.984375 45.101562 15.636719 44.980469 15.308594 44.835938 C 14.488281 44.507812 13.667969 44.097656 12.890625 43.667969 C 12.253906 43.320312 11.621094 42.929688 11.023438 42.5 C 11.25 43.441406 11.539062 44.363281 11.863281 45.246094 C 15.59375 55.472656 25.390625 62.765625 36.90625 62.765625 C 49.285156 62.765625 59.695312 54.324219 62.6875 42.867188 C 62.914062 42.027344 63.097656 41.167969 63.21875 40.285156 C 62.277344 40.695312 61.355469 41.066406 60.390625 41.414062 C 59.820312 41.660156 59.222656 41.863281 58.628906 42.046875 Z M 14.507812 38.09375 C 14.507812 38.050781 14.507812 38.03125 14.507812 37.992188 C 14.242188 37.910156 13.996094 37.828125 13.75 37.746094 C 13.976562 37.867188 14.242188 37.992188 14.507812 38.09375 Z M 14.507812 38.09375 "/>
</g>
</g>
</svg>
