<?xml version="1.0" encoding="UTF-8"?>
<svg xmlns="http://www.w3.org/2000/svg" xmlns:xlink="http://www.w3.org/1999/xlink" width="74.25pt" height="74.249997pt" viewBox="0 0 74.25 74.249997" version="1.2">
<defs>
<clipPath id="clip1">
  <path d="M 2.265625 27 L 39 27 L 39 48 L 2.265625 48 Z M 2.265625 27 "/>
</clipPath>
<clipPath id="clip2">
  <path d="M 12 11.609375 L 62 11.609375 L 62 62 L 12 62 Z M 12 11.609375 "/>
</clipPath>
</defs>
<g id="surface1">
<path style=" stroke:none;fill-rule:nonzero;fill:rgb(92.939758%,37.249756%,11.759949%);fill-opacity:1;" d="M 52.175781 25.9375 C 53.132812 25.972656 54.070312 26.089844 55.011719 26.28125 C 55.871094 26.453125 56.714844 26.703125 57.539062 27.007812 C 58.402344 27.316406 59.226562 27.699219 60.03125 28.121094 C 60.066406 28.140625 60.105469 28.160156 60.144531 28.175781 C 60.910156 28.578125 61.636719 29.019531 62.347656 29.5 L 62.902344 29.882812 C 63.09375 30.015625 63.265625 30.152344 63.4375 30.285156 C 63.804688 30.554688 64.148438 30.820312 64.511719 31.109375 C 65.222656 31.664062 65.890625 32.257812 66.542969 32.871094 C 67.84375 34.097656 69.050781 35.417969 70.203125 36.777344 L 70.910156 37.621094 L 69.992188 38.253906 C 69.835938 38.351562 69.703125 38.445312 69.570312 38.542969 L 69.148438 38.808594 C 68.859375 38.980469 68.59375 39.152344 68.304688 39.328125 C 67.730469 39.671875 67.175781 39.996094 66.582031 40.304688 C 65.429688 40.9375 64.242188 41.53125 63.054688 42.066406 C 62.328125 42.390625 61.582031 42.71875 60.832031 43.003906 C 60.355469 43.195312 59.875 43.386719 59.398438 43.558594 C 58.363281 43.925781 57.328125 44.25 56.273438 44.539062 C 56.042969 44.59375 55.835938 44.652344 55.605469 44.710938 C 53.019531 45.34375 50.335938 45.707031 47.652344 45.550781 C 46.3125 45.476562 44.953125 45.265625 43.652344 44.902344 C 42.347656 44.519531 41.082031 43.980469 39.894531 43.292969 L 39.457031 43.042969 L 39.492188 42.5625 C 39.492188 42.46875 39.511719 42.410156 39.511719 42.351562 L 39.53125 42.144531 C 39.550781 42.007812 39.570312 41.875 39.589844 41.757812 C 39.648438 41.511719 39.683594 41.242188 39.761719 40.992188 C 39.894531 40.496094 40.050781 39.996094 40.222656 39.5 C 40.414062 39.019531 40.605469 38.542969 40.855469 38.0625 C 41.101562 37.601562 41.371094 37.144531 41.675781 36.722656 C 42.289062 35.878906 43.058594 35.113281 43.917969 34.519531 C 44.800781 33.925781 45.757812 33.484375 46.773438 33.214844 C 47.269531 33.082031 47.789062 33.003906 48.304688 32.949219 C 48.824219 32.890625 49.320312 32.871094 49.839844 32.890625 C 50.851562 32.910156 51.847656 33.042969 52.828125 33.253906 C 53.804688 33.464844 54.761719 33.753906 55.699219 34.078125 C 56.390625 34.328125 57.058594 34.59375 57.710938 34.882812 C 57.960938 34.976562 58.191406 35.09375 58.4375 35.207031 C 58.210938 35.132812 57.960938 35.054688 57.730469 34.976562 C 57.039062 34.75 56.332031 34.539062 55.625 34.363281 C 54.664062 34.117188 53.707031 33.925781 52.75 33.808594 C 51.792969 33.675781 50.816406 33.636719 49.855469 33.675781 C 49.378906 33.714844 48.898438 33.753906 48.441406 33.828125 C 47.980469 33.925781 47.519531 34.019531 47.078125 34.171875 C 46.199219 34.460938 45.375 34.902344 44.648438 35.457031 C 43.917969 36.011719 43.304688 36.703125 42.808594 37.488281 C 42.308594 38.253906 41.925781 39.117188 41.640625 39.996094 C 41.503906 40.4375 41.371094 40.898438 41.292969 41.339844 C 41.257812 41.566406 41.21875 41.796875 41.179688 42.027344 C 41.179688 42.085938 41.160156 42.125 41.160156 42.179688 C 42.097656 42.640625 43.09375 43.003906 44.128906 43.253906 C 45.316406 43.542969 46.542969 43.695312 47.769531 43.734375 C 49.015625 43.769531 50.242188 43.695312 51.484375 43.542969 C 51.792969 43.484375 52.097656 43.445312 52.40625 43.40625 L 52.863281 43.332031 L 53.324219 43.234375 C 53.632812 43.175781 53.9375 43.101562 54.242188 43.042969 C 54.550781 42.964844 54.855469 42.890625 55.164062 42.8125 C 55.816406 42.640625 56.464844 42.449219 57.097656 42.257812 C 57.652344 42.085938 58.210938 41.894531 58.765625 41.683594 C 59.644531 41.355469 60.527344 41.011719 61.410156 40.628906 C 61.695312 40.496094 62.003906 40.378906 62.289062 40.246094 C 63.4375 39.710938 64.570312 39.152344 65.679688 38.542969 C 66.234375 38.234375 66.792969 37.929688 67.328125 37.601562 C 67.539062 37.46875 67.769531 37.355469 67.980469 37.21875 C 67.117188 36.203125 66.21875 35.246094 65.257812 34.328125 C 64.644531 33.734375 64.03125 33.160156 63.382812 32.621094 C 63.054688 32.355469 62.730469 32.085938 62.386719 31.816406 C 62.058594 31.550781 61.714844 31.320312 61.371094 31.070312 C 61.234375 30.972656 61.121094 30.898438 60.988281 30.800781 C 60.433594 30.417969 59.835938 30.054688 59.242188 29.710938 C 58.515625 29.308594 57.75 28.945312 56.984375 28.617188 C 56.675781 28.484375 56.371094 28.371094 56.042969 28.273438 C 54.78125 27.832031 53.476562 27.546875 52.15625 27.449219 C 50.488281 27.316406 48.824219 27.449219 47.175781 27.851562 C 45.546875 28.253906 43.957031 28.90625 42.460938 29.730469 C 41.714844 30.152344 40.988281 30.609375 40.277344 31.089844 C 39.570312 31.585938 38.898438 32.125 38.230469 32.679688 C 37.578125 33.234375 36.945312 33.828125 36.332031 34.460938 C 35.71875 35.074219 35.125 35.726562 34.589844 36.414062 C 35.050781 35.667969 35.585938 34.976562 36.121094 34.289062 C 36.675781 33.597656 37.269531 32.949219 37.882812 32.335938 C 39.128906 31.089844 40.488281 29.941406 41.984375 28.980469 C 43.476562 28.023438 45.105469 27.21875 46.851562 26.703125 C 48.515625 26.128906 50.355469 25.859375 52.175781 25.9375 Z M 52.175781 25.9375 "/>
<g clip-path="url(#clip1)" clip-rule="nonzero">
<path style=" stroke:none;fill-rule:nonzero;fill:rgb(92.939758%,37.249756%,11.759949%);fill-opacity:1;" d="M 25.835938 27.851562 C 27.175781 27.929688 28.535156 28.140625 29.839844 28.503906 C 31.140625 28.886719 32.425781 29.421875 33.59375 30.09375 L 34.035156 30.34375 L 33.996094 30.820312 C 33.996094 30.917969 33.976562 30.972656 33.976562 31.03125 L 33.9375 31.242188 C 33.917969 31.375 33.898438 31.511719 33.878906 31.625 C 33.84375 31.875 33.785156 32.144531 33.726562 32.390625 C 33.59375 32.890625 33.441406 33.386719 33.269531 33.886719 C 33.078125 34.382812 32.867188 34.863281 32.636719 35.324219 C 32.386719 35.78125 32.117188 36.242188 31.8125 36.664062 C 31.199219 37.507812 30.433594 38.273438 29.570312 38.867188 C 28.707031 39.460938 27.730469 39.902344 26.714844 40.152344 C 26.21875 40.285156 25.699219 40.359375 25.203125 40.417969 C 24.6875 40.476562 24.1875 40.496094 23.671875 40.476562 C 22.65625 40.4375 21.660156 40.324219 20.683594 40.113281 C 19.703125 39.902344 18.746094 39.613281 17.808594 39.289062 C 17.117188 39.039062 16.449219 38.769531 15.796875 38.484375 C 15.546875 38.367188 15.316406 38.273438 15.070312 38.15625 C 15.316406 38.234375 15.546875 38.3125 15.777344 38.386719 C 16.46875 38.617188 17.175781 38.828125 17.886719 39 C 18.84375 39.25 19.800781 39.441406 20.757812 39.554688 C 21.714844 39.691406 22.695312 39.730469 23.652344 39.691406 C 24.128906 39.652344 24.609375 39.613281 25.070312 39.539062 C 25.527344 39.460938 25.988281 39.347656 26.429688 39.191406 C 27.308594 38.90625 28.152344 38.464844 28.863281 37.910156 C 29.589844 37.355469 30.203125 36.664062 30.699219 35.898438 C 31.199219 35.132812 31.582031 34.269531 31.871094 33.386719 C 32.003906 32.949219 32.117188 32.488281 32.214844 32.046875 C 32.253906 31.816406 32.308594 31.585938 32.328125 31.359375 C 32.328125 31.300781 32.347656 31.261719 32.347656 31.203125 C 31.410156 30.746094 30.414062 30.378906 29.378906 30.132812 C 28.191406 29.84375 26.964844 29.691406 25.738281 29.652344 C 24.511719 29.613281 23.269531 29.691406 22.023438 29.84375 C 21.714844 29.882812 21.410156 29.921875 21.101562 29.976562 L 20.644531 30.054688 L 20.183594 30.152344 C 19.878906 30.207031 19.570312 30.285156 19.265625 30.34375 C 18.957031 30.417969 18.652344 30.496094 18.34375 30.570312 C 17.695312 30.746094 17.0625 30.9375 16.410156 31.128906 C 15.855469 31.320312 15.300781 31.511719 14.742188 31.703125 C 13.863281 32.027344 12.980469 32.371094 12.101562 32.757812 C 11.8125 32.890625 11.523438 33.003906 11.21875 33.140625 C 10.070312 33.675781 8.9375 34.230469 7.828125 34.84375 C 7.273438 35.152344 6.71875 35.457031 6.179688 35.78125 C 5.96875 35.917969 5.738281 36.050781 5.527344 36.183594 C 6.390625 37.199219 7.292969 38.15625 8.230469 39.078125 C 8.84375 39.671875 9.476562 40.246094 10.109375 40.78125 C 10.433594 41.050781 10.757812 41.320312 11.105469 41.585938 C 11.429688 41.855469 11.773438 42.085938 12.117188 42.335938 C 12.253906 42.429688 12.367188 42.507812 12.503906 42.601562 C 13.058594 42.984375 13.652344 43.347656 14.246094 43.695312 C 14.972656 44.097656 15.738281 44.460938 16.503906 44.785156 C 16.8125 44.921875 17.117188 45.035156 17.445312 45.132812 C 18.707031 45.570312 20.011719 45.839844 21.332031 45.953125 C 22.980469 46.089844 24.667969 45.953125 26.3125 45.550781 C 27.941406 45.148438 29.53125 44.5 31.027344 43.675781 C 31.773438 43.253906 32.5 42.792969 33.210938 42.316406 C 33.917969 41.816406 34.609375 41.28125 35.261719 40.726562 C 35.910156 40.167969 36.542969 39.574219 37.15625 38.945312 C 37.769531 38.332031 38.34375 37.679688 38.898438 36.988281 C 38.441406 37.738281 37.902344 38.425781 37.347656 39.117188 C 36.792969 39.804688 36.199219 40.457031 35.585938 41.070312 C 34.339844 42.316406 32.980469 43.464844 31.484375 44.421875 C 29.992188 45.378906 28.363281 46.183594 26.640625 46.703125 C 24.914062 47.21875 23.078125 47.46875 21.257812 47.390625 C 20.296875 47.351562 19.359375 47.238281 18.421875 47.046875 C 17.558594 46.875 16.714844 46.625 15.894531 46.320312 C 15.03125 46.011719 14.207031 45.628906 13.402344 45.207031 C 13.363281 45.1875 13.324219 45.167969 13.289062 45.148438 C 12.519531 44.746094 11.792969 44.308594 11.085938 43.828125 L 10.527344 43.445312 C 10.335938 43.3125 10.164062 43.175781 9.992188 43.042969 C 9.628906 42.773438 9.265625 42.507812 8.917969 42.21875 C 8.230469 41.664062 7.539062 41.070312 6.890625 40.457031 C 5.585938 39.230469 4.378906 37.910156 3.230469 36.550781 L 2.523438 35.707031 L 3.441406 35.074219 C 3.59375 34.957031 3.726562 34.882812 3.863281 34.785156 L 4.285156 34.519531 C 4.570312 34.347656 4.839844 34.171875 5.125 34 C 5.683594 33.65625 6.257812 33.332031 6.832031 33.023438 C 7.980469 32.390625 9.167969 31.796875 10.355469 31.261719 C 11.085938 30.9375 11.832031 30.609375 12.578125 30.324219 C 13.058594 30.132812 13.535156 29.960938 14.015625 29.785156 C 15.050781 29.421875 16.085938 29.097656 17.15625 28.808594 C 17.386719 28.753906 17.597656 28.695312 17.828125 28.636719 C 20.453125 28.0625 23.132812 27.71875 25.835938 27.851562 Z M 25.835938 27.851562 "/>
</g>
<g clip-path="url(#clip2)" clip-rule="nonzero">
<path style=" stroke:none;fill-rule:nonzero;fill:rgb(92.939758%,37.249756%,11.759949%);fill-opacity:1;" d="M 15.777344 38.523438 C 15.777344 38.484375 15.777344 38.464844 15.777344 38.425781 C 15.527344 38.351562 15.300781 38.273438 15.070312 38.195312 C 15.28125 38.3125 15.527344 38.425781 15.777344 38.523438 Z M 12.617188 30.398438 C 12.40625 31.183594 12.234375 31.988281 12.117188 32.8125 C 12.980469 32.429688 13.863281 32.085938 14.761719 31.761719 C 15.316406 31.550781 15.875 31.359375 16.429688 31.183594 C 16.640625 30.398438 16.90625 29.632812 17.195312 28.886719 C 20.296875 21.148438 27.867188 15.6875 36.714844 15.6875 C 44.550781 15.6875 51.371094 19.960938 54.992188 26.300781 C 55.355469 26.933594 55.679688 27.582031 55.96875 28.253906 C 56.273438 28.351562 56.601562 28.464844 56.90625 28.597656 C 57.671875 28.90625 58.4375 29.289062 59.167969 29.691406 C 59.761719 30.015625 60.335938 30.378906 60.910156 30.78125 C 60.699219 29.902344 60.433594 29.039062 60.125 28.214844 C 56.640625 18.65625 47.480469 11.835938 36.714844 11.835938 C 25.144531 11.796875 15.414062 19.691406 12.617188 30.398438 Z M 58.402344 35.226562 C 58.171875 35.113281 57.921875 34.996094 57.671875 34.902344 C 57.671875 34.941406 57.671875 34.960938 57.671875 34.996094 C 57.921875 35.054688 58.171875 35.152344 58.402344 35.226562 Z M 15.757812 38.425781 C 15.507812 38.351562 15.28125 38.273438 15.050781 38.195312 C 15.300781 38.3125 15.527344 38.425781 15.777344 38.523438 C 15.777344 38.503906 15.757812 38.464844 15.757812 38.425781 Z M 57.023438 42.21875 C 56.8125 43.003906 56.542969 43.769531 56.238281 44.539062 C 53.132812 52.277344 45.566406 57.734375 36.714844 57.734375 C 28.898438 57.734375 22.0625 53.464844 18.441406 47.125 C 18.078125 46.492188 17.75 45.839844 17.464844 45.167969 C 17.15625 45.074219 16.832031 44.957031 16.523438 44.824219 C 15.757812 44.519531 14.992188 44.136719 14.265625 43.734375 C 13.671875 43.40625 13.078125 43.042969 12.519531 42.640625 C 12.730469 43.523438 13 44.382812 13.308594 45.207031 C 16.792969 54.765625 25.949219 61.585938 36.714844 61.585938 C 48.285156 61.585938 58.019531 53.695312 60.816406 42.984375 C 61.027344 42.199219 61.199219 41.394531 61.3125 40.570312 C 60.433594 40.953125 59.570312 41.300781 58.667969 41.625 C 58.132812 41.855469 57.578125 42.046875 57.023438 42.21875 Z M 15.777344 38.523438 C 15.777344 38.484375 15.777344 38.464844 15.777344 38.425781 C 15.527344 38.351562 15.300781 38.273438 15.070312 38.195312 C 15.28125 38.3125 15.527344 38.425781 15.777344 38.523438 Z M 15.777344 38.523438 "/>
</g>
</g>
</svg>
